<svg viewBox="0 0 72 72" xmlns="http://www.w3.org/2000/svg">
  <path
    d="M4.5 59.1V47.85C4.5 46.4 5 45.162 6 44.136C7 43.112 8.2 42.6 9.6 42.6H18.825C19.725 42.6 20.588 42.812 21.414 43.236C22.238 43.662 22.9 44.275 23.4 45.075C24.9 47.125 26.75 48.725 28.95 49.875C31.15 51.025 33.5 51.6 36 51.6C38.55 51.6 40.925 51.025 43.125 49.875C45.325 48.725 47.175 47.125 48.675 45.075C49.225 44.275 49.9 43.662 50.7 43.236C51.5 42.812 52.325 42.6 53.175 42.6H62.4C63.85 42.6 65.063 43.112 66.039 44.136C67.013 45.162 67.5 46.4 67.5 47.85V59.1H48V52.05C46.3 53.35 44.425 54.35 42.375 55.05C40.325 55.75 38.2 56.1 36 56.1C33.85 56.1 31.75 55.75 29.7 55.05C27.65 54.35 25.75 53.325 24 51.975V59.1H4.5ZM36 47.4C34.2 47.4 32.488 46.987 30.864 46.161C29.238 45.337 27.9 44.175 26.85 42.675C26.05 41.575 25.1 40.675 24 39.975C22.9 39.275 21.675 38.85 20.325 38.7C21.625 37.15 23.863 35.938 27.039 35.064C30.213 34.188 33.2 33.75 36 33.75C38.8 33.75 41.788 34.188 44.964 35.064C48.138 35.938 50.375 37.15 51.675 38.7C50.375 38.85 49.162 39.275 48.036 39.975C46.912 40.675 45.975 41.575 45.225 42.675C44.175 44.225 42.838 45.4 41.214 46.2C39.588 47 37.85 47.4 36 47.4V47.4ZM12.9 38.4C10.6 38.4 8.65 37.6 7.05 36C5.45 34.4 4.65 32.45 4.65 30.15C4.65 27.85 5.45 25.9 7.05 24.3C8.65 22.7 10.6 21.9 12.9 21.9C15.2 21.9 17.15 22.7 18.75 24.3C20.35 25.9 21.15 27.85 21.15 30.15C21.15 32.45 20.35 34.4 18.75 36C17.15 37.6 15.2 38.4 12.9 38.4ZM59.1 38.4C56.85 38.4 54.912 37.6 53.286 36C51.662 34.4 50.85 32.45 50.85 30.15C50.85 27.85 51.662 25.9 53.286 24.3C54.912 22.7 56.85 21.9 59.1 21.9C61.45 21.9 63.413 22.7 64.989 24.3C66.563 25.9 67.35 27.85 67.35 30.15C67.35 32.45 66.563 34.4 64.989 36C63.413 37.6 61.45 38.4 59.1 38.4ZM36 29.4C33.75 29.4 31.812 28.6 30.186 27C28.562 25.4 27.75 23.45 27.75 21.15C27.75 18.85 28.562 16.9 30.186 15.3C31.812 13.7 33.75 12.9 36 12.9C38.3 12.9 40.25 13.7 41.85 15.3C43.45 16.9 44.25 18.85 44.25 21.15C44.25 23.45 43.45 25.4 41.85 27C40.25 28.6 38.3 29.4 36 29.4Z" />
</svg>