<svg viewBox="0 0 72 72" xmlns="http://www.w3.org/2000/svg">
  <path
    d="M24.675 65.325C24.275 64.925 24.05 64.425 24 63.825C23.95 63.225 24.1 62.7 24.45 62.25L39 42L14.7 39.675C13.4 39.575 12.5375 38.9 12.1125 37.65C11.6875 36.4 11.975 35.35 12.975 34.5L44.1 6.59998C44.55 6.14998 45.0875 5.93748 45.7125 5.96248C46.3375 5.98748 46.875 6.22498 47.325 6.67498C47.725 7.07498 47.95 7.57498 48 8.17498C48.05 8.77498 47.9 9.29998 47.55 9.74998L33 30L57.3 32.325C58.6 32.425 59.4625 33.1 59.8875 34.35C60.3125 35.6 60.025 36.65 59.025 37.5L27.9 65.4C27.45 65.85 26.9125 66.0625 26.2875 66.0375C25.6625 66.0125 25.125 65.775 24.675 65.325Z" />
</svg>