<svg viewBox="0 0 72 72" xmlns="http://www.w3.org/2000/svg">
  <path
    d="M36 35.25C37.45 35.25 38.6875 34.7375 39.7125 33.7125C40.7375 32.6875 41.25 31.45 41.25 30C41.25 28.55 40.7375 27.3125 39.7125 26.2875C38.6875 25.2625 37.45 24.75 36 24.75C34.55 24.75 33.3125 25.2625 32.2875 26.2875C31.2625 27.3125 30.75 28.55 30.75 30C30.75 31.45 31.2625 32.6875 32.2875 33.7125C33.3125 34.7375 34.55 35.25 36 35.25ZM36 60.075C42.65 54.025 47.5625 48.5375 50.7375 43.6125C53.9125 38.6875 55.5 34.35 55.5 30.6C55.5 24.7 53.6125 19.875 49.8375 16.125C46.0625 12.375 41.45 10.5 36 10.5C30.55 10.5 25.9375 12.375 22.1625 16.125C18.3875 19.875 16.5 24.7 16.5 30.6C16.5 34.35 18.125 38.6875 21.375 43.6125C24.625 48.5375 29.5 54.025 36 60.075ZM36 66C27.95 59.15 21.9375 52.7875 17.9625 46.9125C13.9875 41.0375 12 35.6 12 30.6C12 23.1 14.4125 17.125 19.2375 12.675C24.0625 8.225 29.65 6 36 6C42.35 6 47.9375 8.225 52.7625 12.675C57.5875 17.125 60 23.1 60 30.6C60 35.6 58.0125 41.0375 54.0375 46.9125C50.0625 52.7875 44.05 59.15 36 66Z" />
</svg>