<svg viewBox="0 0 72 72" xmlns="http://www.w3.org/2000/svg">
  <path
    d="M58.65 61.725L39.75 42.9C38.25 44.15 36.525 45.125 34.575 45.825C32.625 46.525 30.6249 46.875 28.5749 46.875C23.4249 46.875 19.075 45.1 15.525 41.55C11.975 38 10.2 33.65 10.2 28.5C10.2 23.4 11.975 19.062 15.525 15.486C19.075 11.912 23.4249 10.125 28.5749 10.125C33.6749 10.125 38 11.9 41.55 15.45C45.1 19 46.875 23.35 46.875 28.5C46.875 30.65 46.525 32.7 45.825 34.65C45.125 36.6 44.1749 38.3 42.9749 39.75L61.8 58.575L58.65 61.725ZM28.5749 42.375C32.4249 42.375 35.688 41.025 38.364 38.325C41.038 35.625 42.375 32.35 42.375 28.5C42.375 24.65 41.038 21.375 38.364 18.675C35.688 15.975 32.4249 14.625 28.5749 14.625C24.6749 14.625 21.388 15.975 18.714 18.675C16.038 21.375 14.7 24.65 14.7 28.5C14.7 32.35 16.038 35.625 18.714 38.325C21.388 41.025 24.6749 42.375 28.5749 42.375Z" />
</svg>